<?xml version="1.0" standalone="no"?>
<!DOCTYPE svg PUBLIC "-//W3C//DTD SVG 20010904//EN"
 "http://www.w3.org/TR/2001/REC-SVG-20010904/DTD/svg10.dtd">
<svg version="1.0" xmlns="http://www.w3.org/2000/svg"
 width="700.000000pt" height="700.000000pt" viewBox="0 0 700.000000 700.000000"
 preserveAspectRatio="xMidYMid meet">
<metadata>
Created by potrace 1.14, written by Peter Selinger 2001-2017
</metadata>
<g transform="translate(0.000000,700.000000) scale(0.100000,-0.100000)"
fill="#000000" stroke="none">
<path d="M3340 5821 c-132 -82 -711 -442 -835 -518 -22 -14 -71 -45 -110 -69
-77 -49 -358 -224 -512 -319 -54 -33 -227 -141 -385 -240 -158 -99 -296 -184
-306 -190 -9 -5 -60 -37 -112 -69 -52 -32 -124 -77 -160 -99 -36 -22 -87 -55
-115 -72 -27 -18 -147 -92 -265 -165 -341 -211 -504 -313 -514 -321 -4 -4 39
-21 95 -39 57 -17 163 -50 234 -71 72 -22 157 -49 190 -59 172 -53 1146 -351
1195 -365 13 -4 15 -53 15 -372 -1 -203 1 -373 3 -379 2 -7 31 -15 65 -19 34
-4 69 -8 77 -10 8 -1 51 -8 95 -15 44 -6 91 -13 105 -15 14 -2 45 -7 70 -10
25 -3 52 -8 60 -10 8 -2 38 -6 65 -10 28 -3 77 -10 110 -15 33 -5 78 -12 100
-15 22 -3 65 -10 95 -15 30 -5 80 -12 110 -15 30 -4 57 -8 60 -10 3 -1 30 -6
61 -9 31 -4 67 -9 80 -12 23 -4 58 -9 129 -19 35 -5 251 -37 365 -55 33 -5 76
-12 95 -15 19 -2 55 -7 80 -11 25 -3 70 -9 100 -14 30 -6 71 -12 90 -14 19 -3
49 -7 65 -10 17 -2 66 -10 110 -16 89 -13 116 -17 160 -24 17 -3 50 -8 75 -11
25 -3 56 -7 70 -10 13 -3 88 -14 165 -25 77 -12 152 -23 168 -26 45 -7 103
-16 197 -29 70 -10 308 -46 330 -50 14 -2 48 -7 75 -10 28 -3 73 -10 100 -15
28 -5 86 -14 130 -20 44 -6 91 -13 105 -15 14 -2 43 -6 65 -10 23 -3 50 -7 60
-9 21 -4 75 -12 140 -21 22 -3 67 -10 100 -15 33 -5 83 -12 110 -15 28 -4 57
-8 65 -10 8 -2 35 -7 60 -10 25 -3 56 -8 70 -10 14 -2 87 -13 162 -24 76 -12
152 -23 170 -26 18 -3 122 -33 231 -66 109 -34 201 -59 203 -56 3 3 -8 20 -24
38 -24 28 -288 356 -406 504 -17 21 -43 53 -57 70 -14 16 -129 158 -255 315
-126 157 -234 292 -241 300 -44 54 -274 339 -422 525 -97 121 -178 222 -181
225 -7 6 -111 135 -153 189 -15 20 -43 54 -61 76 -18 22 -53 65 -77 95 -25 30
-119 147 -210 260 -91 113 -268 333 -394 490 -126 157 -234 290 -240 297 -5 7
-15 18 -20 25 -6 7 -43 54 -83 103 -40 50 -78 97 -85 105 -7 8 -84 105 -172
215 -88 110 -166 206 -173 213 -7 8 -25 30 -40 50 -15 21 -29 39 -32 42 -4 3
-32 38 -64 78 -32 39 -61 72 -65 71 -3 0 -76 -44 -161 -98z m192 -368 c48 -60
98 -121 111 -138 14 -16 125 -154 247 -305 121 -151 229 -284 238 -295 9 -11
71 -88 136 -170 66 -82 128 -158 137 -170 9 -11 75 -92 145 -180 71 -88 134
-167 141 -175 6 -8 56 -69 110 -136 54 -67 186 -230 293 -364 107 -134 200
-248 205 -254 6 -6 35 -42 65 -81 30 -38 57 -72 60 -75 3 -3 69 -84 145 -180
77 -96 142 -177 145 -180 3 -3 61 -75 129 -160 68 -85 131 -163 140 -173 12
-14 -431 255 -639 388 -19 12 -60 38 -90 57 -79 50 -596 371 -617 383 -10 6
-151 93 -313 194 -384 239 -447 278 -1280 795 -388 241 -728 453 -756 472 -28
19 -55 34 -61 34 -5 0 -17 8 -27 19 -16 18 -8 24 211 160 125 77 408 253 628
390 220 138 403 250 406 250 3 1 44 -47 91 -106z m-1592 -858 c7 -8 17 -15 22
-15 6 0 24 -10 41 -22 18 -13 41 -28 52 -34 11 -6 110 -67 220 -136 435 -270
794 -494 880 -547 158 -97 629 -390 645 -401 8 -6 74 -46 145 -89 72 -44 142
-89 157 -100 14 -12 29 -21 31 -21 5 0 286 -172 367 -225 19 -12 242 -151 495
-307 253 -157 483 -300 510 -317 28 -17 46 -31 41 -31 -8 0 -865 260 -1121
341 -33 10 -283 86 -555 170 -272 83 -749 228 -1060 324 -311 95 -680 207
-820 250 -140 43 -318 97 -395 120 -77 24 -194 59 -260 79 -66 20 -160 49
-210 65 -49 15 -170 52 -267 82 -98 29 -178 56 -178 59 0 5 13 13 395 250 127
78 246 153 265 165 19 13 139 87 265 165 127 78 246 153 265 166 40 28 53 30
70 9z m284 -1520 c100 -31 208 -64 241 -75 33 -10 218 -66 410 -125 338 -103
425 -130 750 -230 83 -26 222 -68 310 -95 88 -27 279 -85 425 -130 146 -45
292 -90 325 -100 78 -24 64 -24 -91 0 -72 11 -150 22 -174 25 -25 3 -67 10
-95 15 -27 5 -72 12 -100 15 -27 3 -57 7 -65 10 -8 2 -37 6 -65 10 -66 8 -108
14 -175 25 -30 5 -71 11 -90 14 -19 3 -98 14 -175 26 -77 11 -155 23 -172 25
-18 3 -48 7 -65 10 -18 2 -94 13 -168 25 -74 12 -151 23 -170 26 -59 8 -114
16 -135 20 -11 2 -40 6 -65 10 -25 3 -70 9 -100 14 -30 5 -120 19 -200 30 -80
11 -170 25 -200 30 -30 5 -75 12 -100 15 -25 3 -56 7 -70 10 -13 3 -42 7 -65
10 -22 3 -57 8 -77 11 l-38 6 0 214 c0 118 3 214 7 214 3 0 88 -25 187 -55z"/>
</g>
</svg>
